# xmcd
#
# Track frame offsets: 
#        150
#        90966
#        153891
#
# Disc length: 2636 seconds
#
# Revision: 3
# Processed by: cddbd v1.5.2PL0 Copyright (c) Steve Scherf et al.
# Submitted via: ExactAudioCopy v1.0b3
#
DISCID=100a4a03
DTITLE=Date Course Pentagon Royal Garden - Alter War In Tokyo -disc2-
DYEAR=2011
DGENRE=Jazz
TTITLE0=Playmate at Hanoi
TTITLE1=構造I - 現代呪術の構造
TTITLE2=Mirror Balls
EXTD=YEAR: 2011
EXTT0=
EXTT1=
EXTT2=
PLAYORDER=
